<?xml version="1.0" encoding="UTF-8"?>
<svg width="139px" height="315px" viewBox="0 0 139 315" version="1.1" xmlns="http://www.w3.org/2000/svg" xmlns:xlink="http://www.w3.org/1999/xlink">
    <!-- Generator: Sketch 50.2 (55047) - http://www.bohemiancoding.com/sketch -->
    <title>Red Wine Bottle</title>
    <desc>Created with Sketch.</desc>
    <defs>
        <linearGradient x1="90.6509018%" y1="50%" x2="0%" y2="50%" id="linearGradient-1">
            <stop stop-color="#4E4949" offset="0%"></stop>
            <stop stop-color="#F8F8F8" offset="100%"></stop>
        </linearGradient>
        <linearGradient x1="100%" y1="50%" x2="2.58535043%" y2="50%" id="linearGradient-2">
            <stop stop-color="#010101" offset="0%"></stop>
            <stop stop-color="#FFFBFB" offset="100%"></stop>
        </linearGradient>
        <linearGradient x1="50%" y1="50%" x2="7.62069372%" y2="50%" id="linearGradient-3">
            <stop stop-color="#818181" offset="0%"></stop>
            <stop stop-color="#4A4A4A" offset="100%"></stop>
        </linearGradient>
        <linearGradient x1="92.1337323%" y1="27.4535357%" x2="0%" y2="27.4535347%" id="linearGradient-4">
            <stop stop-color="#221211" offset="0%"></stop>
            <stop stop-color="#9A9798" offset="100%"></stop>
        </linearGradient>
        <linearGradient x1="100%" y1="27.4535358%" x2="0%" y2="27.4535347%" id="linearGradient-5">
            <stop stop-color="#190707" offset="0%"></stop>
            <stop stop-color="#9A9798" offset="100%"></stop>
        </linearGradient>
        <radialGradient cx="50%" cy="50%" fx="50%" fy="50%" r="248.516948%" gradientTransform="translate(0.500000,0.500000),scale(0.107143,1.000000),rotate(90.000000),scale(1.000000,1.271747),translate(-0.500000,-0.500000)" id="radialGradient-6">
            <stop stop-color="#FFFFFF" offset="0%"></stop>
            <stop stop-color="#2B1B1B" offset="100%"></stop>
        </radialGradient>
        <radialGradient cx="50%" cy="50%" fx="50%" fy="50%" r="191.40631%" gradientTransform="translate(0.500000,0.500000),scale(0.107143,1.000000),rotate(90.000000),scale(1.000000,1.271747),translate(-0.500000,-0.500000)" id="radialGradient-7">
            <stop stop-color="#FFFFFF" offset="0%"></stop>
            <stop stop-color="#410303" offset="100%"></stop>
        </radialGradient>
    </defs>
    <g id="Page-1" stroke="none" stroke-width="1" fill="none" fill-rule="evenodd">
        <g id="Red-Wine-Bottle">
            <path d="M112.15779,19.1439636 C112.15779,60.3435791 112.15779,81.3302478 112.15779,82.1039699 C129.493196,92.0454048 138.160898,107.794538 138.160898,129.351369 C138.160898,150.908201 136.990924,209.430069 134.650977,304.916973 C122.849773,311.324271 109.723268,314.52792 95.2714597,314.52792 C80.8196517,314.52792 69.7988485,311.324271 62.2090501,304.916973 C59.2703963,193.373945 57.8010694,134.218271 57.8010694,127.449948 C57.8010694,117.297465 62.2090501,90.9935926 82.4872593,83.7449356 C84.3442806,83.0811241 84.1967926,64.8231648 84.1967926,60.7230918 C84.1967926,52.3387828 84.1967926,38.4790734 84.1967926,19.1439636 C83.0571037,17.8680358 82.4872593,15.6713145 82.4872593,12.5537997 C82.4872593,9.43628484 83.0571037,7.73163179 84.1967926,7.43984051 C84.1967926,3.10692868 84.1967926,0.940472769 84.1967926,0.940472769 C84.1967926,0.940472769 93.5171252,0.940472769 112.15779,0.940472769 L112.15779,7.43984051 C113.299632,7.43984051 113.870553,9.14449356 113.870553,12.5537997 C113.870553,16.9668788 112.15779,16.9668788 112.15779,19.1439636 Z" id="Path" fill="#000000"></path>
            <path d="M78.5460661,91.5264613 C74.9020414,101.381776 73.0800291,108.904678 73.0800291,114.095166 C73.0800291,119.285654 73.9812851,184.604669 75.783797,310.052211 C73.3952143,308.992068 71.4383338,308.167966 69.9131556,307.579904 C68.3879773,306.991842 66.4591982,305.469542 64.1268182,303.013003 L60.8622028,125.682198 C60.8416094,118.182188 63.7837717,109.574897 69.6886894,99.8603237 C75.5936072,90.1457507 78.5460661,87.3677966 78.5460661,91.5264613 Z" id="Path-2" fill="url(#linearGradient-1)"></path>
            <path d="M134.683863,87.998591 C126.966199,98.4347866 123.107367,106.248129 123.107367,111.438617 C123.107367,116.629105 124.008623,181.94812 125.811135,307.395662 C121.746666,306.45243 118.930439,305.588293 117.362452,304.803251 C115.794466,304.018209 114.619781,302.88422 113.838397,301.401285 L110.88954,123.025649 C111.165085,111.947855 114.107247,103.340564 119.716027,97.2037747 C125.324807,91.0669856 130.314086,87.998591 134.683863,87.998591 Z" id="Path-2" fill="url(#linearGradient-2)" transform="translate(122.786702, 197.697126) scale(-1, 1) translate(-122.786702, -197.697126) "></path>
            <path d="M1.94961255,1 L30.7245202,1 L30.7245202,7.44529444 C31.8250191,9.47531067 32.3752685,10.9840454 32.3752685,11.9714987 C32.3752685,12.9589519 31.8250191,15.2014938 30.7245202,18.6991245 L30.7245202,56.4653959 L1.94961255,56.4653959 L1.94961255,18.6991245 C0.649870849,15.5720008 0,13.3294588 0,11.9714987 C0,10.6135385 0.649870849,9.10480374 1.94961255,7.44529444 L1.94961255,1 Z" id="Path-3" fill="url(#linearGradient-3)"></path>
            <path d="M29.9496125,1 L58.7245202,1 L58.7245202,7.44529444 C59.8250191,9.47531067 60.3752685,10.9840454 60.3752685,11.9714987 C60.3752685,12.9589519 59.8250191,15.2014938 58.7245202,18.6991245 L58.7245202,56.4653959 L29.9496125,56.4653959 L29.9496125,18.6991245 C28.6498708,15.5720008 28,13.3294588 28,11.9714987 C28,10.6135385 28.6498708,9.10480374 29.9496125,7.44529444 L29.9496125,1 Z" id="Path-3" fill="url(#linearGradient-3)"></path>
            <path d="M97.9809838,11.9340568 L97.9809838,0.962558123 C106.873023,0.717133713 111.58837,0.717133713 112.127024,0.962558123 C112.665678,1.20798253 112.665678,3.35641401 112.127024,7.40785257 C113.162803,9.43786879 113.680692,10.9466035 113.680692,11.9340568 C113.680692,12.92151 113.162803,15.164052 112.127024,18.6616826 L112.127024,56.4279541 L97.9809838,56.4279541 L97.9809838,35.3597632 L97.9809838,11.9340568 Z" id="Path-3" fill="url(#linearGradient-4)"></path>
            <path d="M83,11.9714987 C83,8.31433244 83,4.65716622 83,1 C91.8920394,0.754575591 96.607386,0.754575591 97.14604,1 C97.684694,1.24542441 97.684694,3.39385589 97.14604,7.44529444 C98.181819,9.47531067 98.6997085,10.9840454 98.6997085,11.9714987 C98.6997085,12.9589519 98.181819,15.2014938 97.14604,18.6991245 L97.14604,56.4653959 L83,56.4653959 L83,35.3972051 C83,23.4372337 83,15.6286649 83,11.9714987 Z" id="Path-3" fill="url(#linearGradient-5)" transform="translate(90.849854, 28.640664) scale(-1, 1) translate(-90.849854, -28.640664) "></path>
            <path d="M84.5,19.5 L111.5,19.5" id="Line" stroke="url(#radialGradient-6)" stroke-linecap="square"></path>
            <path d="M84.5,49.5 L111.5,49.5" id="Line" stroke="url(#radialGradient-7)" stroke-linecap="square"></path>
        </g>
    </g>
</svg>