<?xml version="1.0" encoding="UTF-8"?>
<svg width="93px" height="328px" viewBox="0 0 93 328" version="1.1" xmlns="http://www.w3.org/2000/svg" xmlns:xlink="http://www.w3.org/1999/xlink">
    <!-- Generator: Sketch 50.2 (55047) - http://www.bohemiancoding.com/sketch -->
    <title>sparkling wine</title>
    <desc>Created with Sketch.</desc>
    <defs>
        <radialGradient cx="52.5169322%" cy="64.125514%" fx="52.5169322%" fy="64.125514%" r="123.120753%" gradientTransform="translate(0.525169,0.641255),scale(1.000000,0.282511),rotate(-1.229837),scale(1.000000,1.943312),translate(-0.525169,-0.641255)" id="radialGradient-1">
            <stop stop-color="#142302" offset="0%"></stop>
            <stop stop-color="#1E281F" offset="29.0805638%"></stop>
            <stop stop-color="#373D44" offset="71.5223697%"></stop>
            <stop stop-color="#383E45" offset="85.7523483%"></stop>
            <stop stop-color="#272B2A" offset="100%"></stop>
        </radialGradient>
        <radialGradient cx="60.3461292%" cy="46.4379111%" fx="60.3461292%" fy="46.4379111%" r="315.864592%" gradientTransform="translate(0.603461,0.464379),scale(1.000000,0.220225),rotate(93.618744),scale(1.000000,0.309890),translate(-0.603461,-0.464379)" id="radialGradient-2">
            <stop stop-color="#FEFFFF" offset="0%"></stop>
            <stop stop-color="#8D8C91" offset="47.2371087%"></stop>
            <stop stop-color="#838387" offset="69.9567813%"></stop>
            <stop stop-color="#4D524F" offset="82.917668%"></stop>
            <stop stop-color="#4B514E" offset="90.4663666%"></stop>
            <stop stop-color="#38383A" offset="100%"></stop>
        </radialGradient>
        <radialGradient cx="60.3461292%" cy="46.4379111%" fx="60.3461292%" fy="46.4379111%" r="321.336191%" gradientTransform="translate(0.603461,0.464379),scale(1.000000,0.216461),rotate(93.557045),scale(1.000000,0.309890),translate(-0.603461,-0.464379)" id="radialGradient-3">
            <stop stop-color="#FEFFFF" offset="0%"></stop>
            <stop stop-color="#8D8C91" offset="47.2371087%"></stop>
            <stop stop-color="#838387" offset="69.9567813%"></stop>
            <stop stop-color="#4D524F" offset="82.917668%"></stop>
            <stop stop-color="#4B514E" offset="90.4663666%"></stop>
            <stop stop-color="#38383A" offset="100%"></stop>
        </radialGradient>
        <linearGradient x1="32.7158485%" y1="27.3649812%" x2="13.1130959%" y2="27.3649817%" id="linearGradient-4">
            <stop stop-color="#F1D4B6" offset="0%"></stop>
            <stop stop-color="#A47D6B" offset="94.4725434%"></stop>
            <stop stop-color="#9F7867" offset="100%"></stop>
        </linearGradient>
        <linearGradient x1="61.4416316%" y1="29.0218353%" x2="81.4446556%" y2="29.0218353%" id="linearGradient-5">
            <stop stop-color="#9F7867" stop-opacity="0.5" offset="0%"></stop>
            <stop stop-color="#9F7867" stop-opacity="0.5" offset="100%"></stop>
        </linearGradient>
        <linearGradient x1="51.9135303%" y1="50%" x2="36.8837632%" y2="50%" id="linearGradient-6">
            <stop stop-color="#6C421A" offset="0%"></stop>
            <stop stop-color="#FDE9D1" offset="100%"></stop>
        </linearGradient>
        <linearGradient x1="66.8736381%" y1="56.6562235%" x2="50%" y2="56.6562235%" id="linearGradient-7">
            <stop stop-color="#FFFFFF" stop-opacity="0.5" offset="0%"></stop>
            <stop stop-color="#6C421A" stop-opacity="0.5" offset="100%"></stop>
        </linearGradient>
        <path d="M42.3592826,45.9171972 C40.0558886,58.156255 40.4586459,73.0582113 43.5675545,90.6230662 C44.4534148,95.6280405 47.3692658,106.450357 52.3151074,123.090016 C48.0048849,122.741097 45.3797188,123.91058 44.4396089,126.598463 C43.5675545,129.091768 37.3376133,135.96419 25.1664022,135.96419 C16.5307315,135.96419 8.16518694,129.677922 6.42909767,124.990068 C4.6930084,120.302214 -0.427256464,126.041864 1.00399079,122.056545 C5.73440157,108.884679 7.2583606,104.323308 9.45363131,87.0387891 C12.4415159,63.5136055 12.8668858,49.8064082 10.7297411,45.9171972 C11.4072547,45.0110566 11.4072547,43.969709 10.7297411,42.7931542 C9.71347059,41.0283221 8.20497963,41.0283221 7.24048996,38.9916876 C6.27600029,36.9550531 10.0533851,27.3910701 10.7297411,21.890835 C11.1806451,18.2240116 11.1806451,14.4659131 10.7297411,10.6165393 C10.8904043,4.0856959 16.403539,0.82027419 27.2691452,0.82027419 C38.1347514,0.82027419 43.5675545,4.0856959 43.5675545,10.6165393 C42.7620399,14.7823026 42.3592826,18.5404012 42.3592826,21.890835 C42.3592826,26.9164858 46.1838129,37.099991 45.2607638,38.9916876 C44.3377147,40.8833842 43.5675545,40.8833842 42.3592826,42.7931542 C41.553768,44.0663343 41.553768,45.1076819 42.3592826,45.9171972 Z" id="path-8"></path>
    </defs>
    <g id="Page-1" stroke="none" stroke-width="1" fill="none" fill-rule="evenodd">
        <g id="sparkling-wine">
            <path d="M63.5326716,46.096923 C61.2292775,58.3359808 61.6320348,73.2379371 64.7409435,90.802792 C68.287351,110.839449 86.9154166,160.589291 90.3839151,191.200249 C92.7033978,211.670659 92.5807247,228.955896 92.0500623,252.863111 C91.8280246,262.866277 91.2726422,280.182451 90.3839151,304.811633 C90.3839151,313.240918 86.9509933,319.493835 80.0851497,323.570386 C69.7863842,329.685212 17.0630554,329.685212 9.72139014,321.846353 C4.82694663,316.620448 2.61045235,310.942208 3.07190728,304.811633 C0.874129432,283.638879 -0.144358069,266.322704 0.0164447766,252.863111 C0.231019753,234.902658 -0.600695889,211.280387 3.07190728,191.200249 C14.7733856,127.221842 26.1451934,122.50629 30.6270203,87.2185149 C33.6149048,63.6933314 34.0402748,49.986134 31.90313,46.096923 C32.5806437,45.1907824 32.5806437,44.1494348 31.90313,42.9728801 C30.8868595,41.2080479 29.3783686,41.2080479 28.4138789,39.1714134 C27.4493892,37.134779 31.226774,27.570796 31.90313,22.0705608 C32.354034,18.4037374 32.354034,14.6456389 31.90313,10.7962651 C32.0637932,4.26542171 37.5769279,1 48.4425341,1 C59.3081404,1 64.7409435,4.26542171 64.7409435,10.7962651 C63.9354289,14.9620284 63.5326716,18.720127 63.5326716,22.0705608 C63.5326716,27.0962116 67.3572019,37.2797169 66.4341528,39.1714134 C65.5111037,41.06311 64.7409435,41.06311 63.5326716,42.9728801 C62.727157,44.2460601 62.727157,45.2874077 63.5326716,46.096923 Z" id="Path-7" fill="url(#radialGradient-1)"></path>
            <path d="M28.2141448,121 C21.669845,139.675688 16.6488168,157.900028 13.1510603,175.673018 C9.65330381,193.446009 9.06749583,212.100814 11.3936364,231.637435 L35.3258794,236 L35.3258794,124.657777 L28.2141448,121 Z" id="Path-8" fill="url(#radialGradient-2)" opacity="0.696372768"></path>
            <path d="M79.2141448,121 C72.669845,140.000483 67.6488168,158.541767 64.1510603,176.623853 C60.6533038,194.705939 60.0674958,213.685176 62.3936364,233.561564 L86.3258794,238 L86.3258794,124.721391 L79.2141448,121 Z" id="Path-8" fill="url(#radialGradient-3)" opacity="0.696372768" transform="translate(73.662940, 179.500000) scale(-1, 1) translate(-73.662940, -179.500000) "></path>
            <g id="foil" transform="translate(21.000000, 0.000000)">
                <g id="foil-cap-">
                    <g id="Path-7">
                        <use fill="url(#linearGradient-4)" xlink:href="#path-8"></use>
                        <use fill="url(#linearGradient-5)" xlink:href="#path-8"></use>
                        <use fill="url(#linearGradient-6)" xlink:href="#path-8"></use>
                        <use fill="url(#linearGradient-7)" xlink:href="#path-8"></use>
                    </g>
                    <g id="Group" transform="translate(12.000000, 14.000000)" fill="#000000">
                        <polygon id="Rectangle" transform="translate(3.131637, 3.222784) rotate(55.000000) translate(-3.131637, -3.222784) " points="1.19326968 1.86552453 3.71481083 2.33369824 5.0700035 4.58004278 2.53476386 3.91629619"></polygon>
                        <polygon id="Rectangle" transform="translate(3.223603, 9.366309) rotate(55.000000) translate(-3.223603, -9.366309) " points="1.28523626 8.00904995 3.80677741 8.47722365 5.16197008 10.7235682 2.62673044 10.0598216"></polygon>
                        <polygon id="Rectangle" transform="translate(6.223603, 9.366309) rotate(55.000000) translate(-6.223603, -9.366309) " points="4.28523626 8.00904995 6.80677741 8.47722365 8.16197008 10.7235682 5.62673044 10.0598216"></polygon>
                        <polygon id="Rectangle" transform="translate(3.223603, 16.366309) rotate(55.000000) translate(-3.223603, -16.366309) " points="1.28523626 15.0090499 3.80677741 15.4772237 5.16197008 17.7235682 2.62673044 17.0598216"></polygon>
                        <polygon id="Rectangle" transform="translate(5.223603, 6.366309) rotate(55.000000) translate(-5.223603, -6.366309) " points="3.28523626 5.00904995 5.80677741 5.47722365 7.16197008 7.72356819 4.62673044 7.05982161"></polygon>
                        <polygon id="Rectangle" transform="translate(5.223603, 13.366309) rotate(55.000000) translate(-5.223603, -13.366309) " points="3.28523626 12.0090499 5.80677741 12.4772237 7.16197008 14.7235682 4.62673044 14.0598216"></polygon>
                    </g>
                    <g id="Group" transform="translate(37.500000, 24.500000) scale(-1, 1) translate(-37.500000, -24.500000) translate(33.000000, 15.000000)" fill="#000000">
                        <polygon id="Rectangle" transform="translate(3.131637, 3.222784) rotate(55.000000) translate(-3.131637, -3.222784) " points="1.19326968 1.86552453 3.71481083 2.33369824 5.0700035 4.58004278 2.53476386 3.91629619"></polygon>
                        <polygon id="Rectangle" transform="translate(3.223603, 9.366309) rotate(55.000000) translate(-3.223603, -9.366309) " points="1.28523626 8.00904995 3.80677741 8.47722365 5.16197008 10.7235682 2.62673044 10.0598216"></polygon>
                        <polygon id="Rectangle" transform="translate(6.223603, 9.366309) rotate(55.000000) translate(-6.223603, -9.366309) " points="4.28523626 8.00904995 6.80677741 8.47722365 8.16197008 10.7235682 5.62673044 10.0598216"></polygon>
                        <polygon id="Rectangle" transform="translate(3.223603, 16.366309) rotate(55.000000) translate(-3.223603, -16.366309) " points="1.28523626 15.0090499 3.80677741 15.4772237 5.16197008 17.7235682 2.62673044 17.0598216"></polygon>
                        <polygon id="Rectangle" transform="translate(5.223603, 6.366309) rotate(55.000000) translate(-5.223603, -6.366309) " points="3.28523626 5.00904995 5.80677741 5.47722365 7.16197008 7.72356819 4.62673044 7.05982161"></polygon>
                        <polygon id="Rectangle" transform="translate(5.223603, 13.366309) rotate(55.000000) translate(-5.223603, -13.366309) " points="3.28523626 12.0090499 5.80677741 12.4772237 7.16197008 14.7235682 4.62673044 14.0598216"></polygon>
                    </g>
                </g>
                <g id="dot-line" transform="translate(7.000000, 36.000000)" fill="#000000">
                    <polygon id="Rectangle" transform="translate(0.814052, 1.912999) rotate(63.000000) translate(-0.814052, -1.912999) " points="0.0588176678 1.38417775 1.0412712 1.56658957 1.56928709 2.44181982 0.581496304 2.18320807"></polygon>
                    <polygon id="Rectangle" transform="translate(2.814052, 1.912999) rotate(63.000000) translate(-2.814052, -1.912999) " points="2.05881767 1.38417775 3.0412712 1.56658957 3.56928709 2.44181982 2.5814963 2.18320807"></polygon>
                    <polygon id="Rectangle" transform="translate(6.814052, 1.912999) rotate(71.000000) translate(-6.814052, -1.912999) " points="6.05881767 1.38417775 7.0412712 1.56658957 7.56928709 2.44181982 6.5814963 2.18320807"></polygon>
                    <polygon id="Rectangle" transform="translate(4.814052, 1.912999) rotate(50.000000) translate(-4.814052, -1.912999) " points="4.05881767 1.38417775 5.0412712 1.56658957 5.56928709 2.44181982 4.5814963 2.18320807"></polygon>
                    <g id="Group-3" transform="translate(17.000000, 0.000000)">
                        <polygon id="Rectangle" transform="translate(0.814052, 1.912999) rotate(63.000000) translate(-0.814052, -1.912999) " points="0.0588176678 1.38417775 1.0412712 1.56658957 1.56928709 2.44181982 0.581496304 2.18320807"></polygon>
                        <polygon id="Rectangle" transform="translate(2.814052, 1.912999) rotate(63.000000) translate(-2.814052, -1.912999) " points="2.05881767 1.38417775 3.0412712 1.56658957 3.56928709 2.44181982 2.5814963 2.18320807"></polygon>
                        <polygon id="Rectangle" transform="translate(6.814052, 1.912999) rotate(71.000000) translate(-6.814052, -1.912999) " points="6.05881767 1.38417775 7.0412712 1.56658957 7.56928709 2.44181982 6.5814963 2.18320807"></polygon>
                        <polygon id="Rectangle" transform="translate(4.814052, 1.912999) rotate(50.000000) translate(-4.814052, -1.912999) " points="4.05881767 1.38417775 5.0412712 1.56658957 5.56928709 2.44181982 4.5814963 2.18320807"></polygon>
                    </g>
                    <g id="Group-3" transform="translate(8.000000, 0.000000)">
                        <polygon id="Rectangle" transform="translate(0.814052, 1.912999) rotate(63.000000) translate(-0.814052, -1.912999) " points="0.0588176678 1.38417775 1.0412712 1.56658957 1.56928709 2.44181982 0.581496304 2.18320807"></polygon>
                        <polygon id="Rectangle" transform="translate(2.814052, 1.912999) rotate(63.000000) translate(-2.814052, -1.912999) " points="2.05881767 1.38417775 3.0412712 1.56658957 3.56928709 2.44181982 2.5814963 2.18320807"></polygon>
                        <polygon id="Rectangle" transform="translate(6.814052, 1.912999) rotate(71.000000) translate(-6.814052, -1.912999) " points="6.05881767 1.38417775 7.0412712 1.56658957 7.56928709 2.44181982 6.5814963 2.18320807"></polygon>
                        <polygon id="Rectangle" transform="translate(4.814052, 1.912999) rotate(50.000000) translate(-4.814052, -1.912999) " points="4.05881767 1.38417775 5.0412712 1.56658957 5.56928709 2.44181982 4.5814963 2.18320807"></polygon>
                    </g>
                    <g id="Group-3" transform="translate(30.000000, 0.000000)">
                        <polygon id="Rectangle" transform="translate(0.814052, 1.912999) rotate(63.000000) translate(-0.814052, -1.912999) " points="0.0588176678 1.38417775 1.0412712 1.56658957 1.56928709 2.44181982 0.581496304 2.18320807"></polygon>
                        <polygon id="Rectangle" transform="translate(2.814052, 1.912999) rotate(63.000000) translate(-2.814052, -1.912999) " points="2.05881767 1.38417775 3.0412712 1.56658957 3.56928709 2.44181982 2.5814963 2.18320807"></polygon>
                        <polygon id="Rectangle" transform="translate(6.814052, 1.912999) rotate(71.000000) translate(-6.814052, -1.912999) " points="6.05881767 1.38417775 7.0412712 1.56658957 7.56928709 2.44181982 6.5814963 2.18320807"></polygon>
                        <polygon id="Rectangle" transform="translate(4.814052, 1.912999) rotate(50.000000) translate(-4.814052, -1.912999) " points="4.05881767 1.38417775 5.0412712 1.56658957 5.56928709 2.44181982 4.5814963 2.18320807"></polygon>
                    </g>
                    <g id="Group-3" transform="translate(23.000000, 0.000000)">
                        <polygon id="Rectangle" transform="translate(0.814052, 1.912999) rotate(63.000000) translate(-0.814052, -1.912999) " points="0.0588176678 1.38417775 1.0412712 1.56658957 1.56928709 2.44181982 0.581496304 2.18320807"></polygon>
                        <polygon id="Rectangle" transform="translate(2.814052, 1.912999) rotate(63.000000) translate(-2.814052, -1.912999) " points="2.05881767 1.38417775 3.0412712 1.56658957 3.56928709 2.44181982 2.5814963 2.18320807"></polygon>
                        <polygon id="Rectangle" transform="translate(6.814052, 1.912999) rotate(71.000000) translate(-6.814052, -1.912999) " points="6.05881767 1.38417775 7.0412712 1.56658957 7.56928709 2.44181982 6.5814963 2.18320807"></polygon>
                        <polygon id="Rectangle" transform="translate(4.814052, 1.912999) rotate(50.000000) translate(-4.814052, -1.912999) " points="4.05881767 1.38417775 5.0412712 1.56658957 5.56928709 2.44181982 4.5814963 2.18320807"></polygon>
                    </g>
                </g>
                <g id="dot-line" transform="translate(11.000000, 46.000000)" fill="#000000">
                    <polygon id="Rectangle" transform="translate(1.500000, 1.500000) rotate(63.000000) translate(-1.500000, -1.500000) " points="1 1 1.65042927 1.17247027 2 2 1.34603722 1.75548273"></polygon>
                    <polygon id="Rectangle" transform="translate(3.500000, 1.500000) rotate(63.000000) translate(-3.500000, -1.500000) " points="3 1 3.65042927 1.17247027 4 2 3.34603722 1.75548273"></polygon>
                    <polygon id="Rectangle" transform="translate(6.500000, 1.500000) rotate(71.000000) translate(-6.500000, -1.500000) " points="6 1 6.65042927 1.17247027 7 2 6.34603722 1.75548273"></polygon>
                    <polygon id="Rectangle" transform="translate(4.500000, 1.500000) rotate(50.000000) translate(-4.500000, -1.500000) " points="4 1 4.65042927 1.17247027 5 2 4.34603722 1.75548273"></polygon>
                    <g id="Group-3" transform="translate(14.000000, 1.000000)">
                        <polygon id="Rectangle" transform="translate(1.498259, 0.912999) rotate(63.000000) translate(-1.498259, -0.912999) " points="0.920032277 0.384177745 1.67222326 0.566589565 2.07648543 1.44181982 1.32020811 1.18320807"></polygon>
                        <polygon id="Rectangle" transform="translate(3.029509, 0.912999) rotate(63.000000) translate(-3.029509, -0.912999) " points="2.45128228 0.384177745 3.20347326 0.566589565 3.60773543 1.44181982 2.85145811 1.18320807"></polygon>
                        <polygon id="Rectangle" transform="translate(6.092009, 0.912999) rotate(71.000000) translate(-6.092009, -0.912999) " points="5.51378228 0.384177745 6.26597326 0.566589565 6.67023543 1.44181982 5.91395811 1.18320807"></polygon>
                        <polygon id="Rectangle" transform="translate(4.560759, 0.912999) rotate(50.000000) translate(-4.560759, -0.912999) " points="3.98253228 0.384177745 4.73472326 0.566589565 5.13898543 1.44181982 4.38270811 1.18320807"></polygon>
                    </g>
                    <g id="Group-3" transform="translate(6.000000, 1.000000)">
                        <polygon id="Rectangle" transform="translate(1.498259, 0.912999) rotate(63.000000) translate(-1.498259, -0.912999) " points="0.920032277 0.384177745 1.67222326 0.566589565 2.07648543 1.44181982 1.32020811 1.18320807"></polygon>
                        <polygon id="Rectangle" transform="translate(3.029509, 0.912999) rotate(63.000000) translate(-3.029509, -0.912999) " points="2.45128228 0.384177745 3.20347326 0.566589565 3.60773543 1.44181982 2.85145811 1.18320807"></polygon>
                        <polygon id="Rectangle" transform="translate(6.092009, 0.912999) rotate(71.000000) translate(-6.092009, -0.912999) " points="5.51378228 0.384177745 6.26597326 0.566589565 6.67023543 1.44181982 5.91395811 1.18320807"></polygon>
                        <polygon id="Rectangle" transform="translate(4.560759, 0.912999) rotate(50.000000) translate(-4.560759, -0.912999) " points="3.98253228 0.384177745 4.73472326 0.566589565 5.13898543 1.44181982 4.38270811 1.18320807"></polygon>
                    </g>
                    <g id="Group-3" transform="translate(24.000000, 1.000000)">
                        <polygon id="Rectangle" transform="translate(1.498259, 0.912999) rotate(63.000000) translate(-1.498259, -0.912999) " points="0.920032277 0.384177745 1.67222326 0.566589565 2.07648543 1.44181982 1.32020811 1.18320807"></polygon>
                        <polygon id="Rectangle" transform="translate(3.029509, 0.912999) rotate(63.000000) translate(-3.029509, -0.912999) " points="2.45128228 0.384177745 3.20347326 0.566589565 3.60773543 1.44181982 2.85145811 1.18320807"></polygon>
                        <polygon id="Rectangle" transform="translate(6.092009, 0.912999) rotate(71.000000) translate(-6.092009, -0.912999) " points="5.51378228 0.384177745 6.26597326 0.566589565 6.67023543 1.44181982 5.91395811 1.18320807"></polygon>
                        <polygon id="Rectangle" transform="translate(4.560759, 0.912999) rotate(50.000000) translate(-4.560759, -0.912999) " points="3.98253228 0.384177745 4.73472326 0.566589565 5.13898543 1.44181982 4.38270811 1.18320807"></polygon>
                    </g>
                    <g id="Group-3" transform="translate(18.000000, 1.000000)">
                        <polygon id="Rectangle" transform="translate(1.498259, 0.912999) rotate(63.000000) translate(-1.498259, -0.912999) " points="0.920032277 0.384177745 1.67222326 0.566589565 2.07648543 1.44181982 1.32020811 1.18320807"></polygon>
                        <polygon id="Rectangle" transform="translate(3.029509, 0.912999) rotate(63.000000) translate(-3.029509, -0.912999) " points="2.45128228 0.384177745 3.20347326 0.566589565 3.60773543 1.44181982 2.85145811 1.18320807"></polygon>
                        <polygon id="Rectangle" transform="translate(6.092009, 0.912999) rotate(71.000000) translate(-6.092009, -0.912999) " points="5.51378228 0.384177745 6.26597326 0.566589565 6.67023543 1.44181982 5.91395811 1.18320807"></polygon>
                        <polygon id="Rectangle" transform="translate(4.560759, 0.912999) rotate(50.000000) translate(-4.560759, -0.912999) " points="3.98253228 0.384177745 4.73472326 0.566589565 5.13898543 1.44181982 4.38270811 1.18320807"></polygon>
                    </g>
                </g>
            </g>
        </g>
    </g>
</svg>