<?xml version="1.0" encoding="UTF-8"?>
<svg width="82px" height="317px" viewBox="0 0 82 317" version="1.1" xmlns="http://www.w3.org/2000/svg" xmlns:xlink="http://www.w3.org/1999/xlink">
    <!-- Generator: Sketch 50.2 (55047) - http://www.bohemiancoding.com/sketch -->
    <title>White Wine</title>
    <desc>Created with Sketch.</desc>
    <defs>
        <linearGradient x1="100%" y1="50%" x2="0%" y2="50%" id="linearGradient-1">
            <stop stop-color="#C59D55" offset="0%"></stop>
            <stop stop-color="#DAB96C" offset="18.8155151%"></stop>
            <stop stop-color="#DFB73C" offset="37.9204025%"></stop>
            <stop stop-color="#D8A730" offset="83.1616398%"></stop>
            <stop stop-color="#916F2D" offset="100%"></stop>
        </linearGradient>
        <linearGradient x1="45.6103244%" y1="0.889009155%" x2="12.8385171%" y2="98.7701455%" id="linearGradient-2">
            <stop stop-color="#F8DE8A" offset="0%"></stop>
            <stop stop-color="#EADCAD" stop-opacity="0.881830293" offset="11.8806786%"></stop>
            <stop stop-color="#AF9438" stop-opacity="0.555827083" offset="87.2561416%"></stop>
            <stop stop-color="#000000" stop-opacity="0.5" offset="100%"></stop>
        </linearGradient>
        <path d="M57.5862015,65 C57.5862015,81.4857388 59.3495105,94.6832254 62.8761284,104.59246 C71.2402695,128.094363 80.7922624,155.902443 80.7922624,176.099564 C80.7922624,189.564312 81.1933794,231.900969 81.9956133,303.109537 C82.0657246,305.735515 81.2954064,308.190083 79.6846587,310.473241 C77.2685371,313.897979 63.5258106,317 40.9978067,317 C18.4698027,317 5.04697935,313.897979 2.5097941,310.473241 C0.818337263,308.190083 -0.0181611229,305.735515 0.000298938989,303.109537 C0.859765077,232.34519 1.28949815,190.008532 1.28949815,176.099564 C1.28949815,155.236112 10.7576341,134.384535 18.4698027,105.996511 C23.6112484,87.0711623 25.8615666,73.4056585 25.2207572,65 L57.5862015,65 Z" id="path-3"></path>
        <linearGradient x1="13.5876619%" y1="50%" x2="87.4051959%" y2="50%" id="linearGradient-4">
            <stop stop-color="#C0BAA0" offset="0%"></stop>
            <stop stop-color="#DCCEB3" offset="22.5365788%"></stop>
            <stop stop-color="#C3B284" offset="46.0124639%"></stop>
            <stop stop-color="#AFA05F" offset="65.8733743%"></stop>
            <stop stop-color="#9D8E49" offset="81.6248194%"></stop>
            <stop stop-color="#716732" offset="100%"></stop>
        </linearGradient>
        <radialGradient cx="40.2073194%" cy="22.0625061%" fx="40.2073194%" fy="22.0625061%" r="242.788328%" gradientTransform="translate(0.402073,0.220625),scale(1.000000,0.224490),rotate(94.521821),scale(1.000000,0.246759),translate(-0.402073,-0.220625)" id="radialGradient-5">
            <stop stop-color="#F5EACC" offset="0%"></stop>
            <stop stop-color="#EBD896" offset="51.9504928%"></stop>
            <stop stop-color="#DFC355" offset="100%"></stop>
        </radialGradient>
    </defs>
    <g id="Page-1" stroke="none" stroke-width="1" fill="none" fill-rule="evenodd">
        <g id="White-Wine">
            <g id="Path-4" opacity="0.874665179">
                <use fill="url(#linearGradient-1)" xlink:href="#path-3"></use>
                <use fill="url(#linearGradient-2)" xlink:href="#path-3"></use>
            </g>
            <path d="M41.5071523,0 C49.2713339,0 56.2033031,2.49470826 56.2033031,4.47022645 C56.2033031,5.78723857 55.9132553,7.07656057 55.3331597,8.33819242 L55.3331597,11.7979452 C56.4877315,12.5516361 57.0650173,13.5906652 57.0650173,14.9150325 C57.0650173,16.2393999 56.7777793,17.382916 56.2033031,18.3455809 C57.401101,19.0629285 58,19.5773593 58,19.8888734 C58,20.2003874 57.6883391,20.6159558 57.0650173,21.1355785 C57.2761157,22.494491 57.2761157,23.4058859 57.0650173,23.8697632 C56.853919,24.3336404 56.2766331,24.6907999 55.3331597,24.9412417 L58,28.2355026 L58,65 L25.0143046,65 L25.0143046,27.2990135 L26.8362889,24.9412417 C25.7099883,24.618313 25.1026602,24.2611535 25.0143046,23.8697632 C24.9259491,23.4783729 25.2469036,22.566978 25.9771682,21.1355785 C25.3352591,20.5265397 25.0143046,20.1109713 25.0143046,19.8888734 C25.0143046,19.6667754 25.3352591,19.1523446 25.9771682,18.3455809 C25.3352591,17.3742628 25.0143046,16.2307467 25.0143046,14.9150325 C25.0143046,13.5993184 25.6216327,12.5602893 26.8362889,11.7979452 L26.8362889,8.33819242 C26.2635417,7.147194 25.9771682,6.25440342 25.9771682,5.65982068 C25.9771682,1.41479292 32.7482279,2.11372919e-15 41.5071523,0 Z" id="Path-5" fill="url(#linearGradient-4)"></path>
            <path d="M27.5,8.5 L56.5,8.5" id="Line-2" stroke-linecap="square"></path>
            <path d="M27,8.51350213 C30.8070444,8.17116738 35.7974484,8 41.971212,8 C48.1449756,8 52.8212383,8.17116738 56,8.51350213" id="Line-3" fill="#7E6D59"></path>
            <path d="M27,12.5135021 C30.8070444,12.1711674 35.7974484,12 41.971212,12 C48.1449756,12 52.8212383,12.1711674 56,12.5135021" id="Line-3" fill="#7E6D59"></path>
            <path d="M26,18.5135021 C30.0695992,18.1711674 35.404169,18 42.0037094,18 C48.6032498,18 53.6020133,18.1711674 57,18.5135021" id="Line-3" fill="#7E6D59"></path>
            <path d="M27,22.5135021 C31.0695992,22.1711674 36.404169,22 43.0037094,22 C49.6032498,22 54.6020133,22.1711674 58,22.5135021" id="Line-3" fill="#7E6D59"></path>
            <path d="M28,25.5135021 C31.8070444,25.1711674 36.7974484,25 42.971212,25 C49.1449756,25 53.8212383,25.1711674 57,25.5135021" id="Line-3" fill="#7E6D59"></path>
            <path d="M43,132.55385 C43,132.55385 40.6978783,161.285439 36.093635,218.748618 C35.4113301,227.264113 34.2741226,241.45701 32.6820128,261.32731 C29.8737733,266.148349 27.1493879,267.896452 24.5088566,266.571619 C21.8683254,265.246787 20.4270827,262.345846 20.1851287,257.868795 C14.754701,236.921885 11.4542553,215.176523 10.2837916,192.632708 C9.11332783,170.088893 11.5634404,149.111657 17.6341291,129.700997 C19.3347955,123.233666 24.3507567,120 32.6820128,120 C43,120 43,132.55385 43,132.55385 Z" id="Path-6" fill="url(#radialGradient-5)"></path>
        </g>
    </g>
</svg>